PathFileType	4	(X/Y/Z)	/Users/itak/Documents/Research/Walk-IL/dataset/trc/00444_00167.trc
DataRate	CameraRate	NumFrames	NumMarkers	Units	OrigDataRate	OrigDataStartFrame	OrigNumFrames
100.000000	100.000000	4	53	mm	100.000000	271	542
Frame#	Time	RPSI			LPSI			L3			STRN			T10			C7			CLAV			RBAK			LBAK			LSHO			LUPA			LAEL			LAOL			LWTS			LWPS			LFRA			LIFD			LHPS			LHTS			RSHO			RUPA			RAEL			RAOL			RWTS			RWPS			RFRA			RIFD			RHTS			RHPS			RBHD			LFHD			RFHD			LBHD			LHIP			RHIP			RASI			LASI			LKNE			LTHI			LANK			LTIP			LTOE			LMT1			LMT5			LHEE			RKNE			RTHI			RANK			RTIP			RTOE			RMT1			RMT5			RHEE			
		X1	Y1	Z1	X2	Y2	Z2	X3	Y3	Z3	X4	Y4	Z4	X5	Y5	Z5	X6	Y6	Z6	X7	Y7	Z7	X8	Y8	Z8	X9	Y9	Z9	X10	Y10	Z10	X11	Y11	Z11	X12	Y12	Z12	X13	Y13	Z13	X14	Y14	Z14	X15	Y15	Z15	X16	Y16	Z16	X17	Y17	Z17	X18	Y18	Z18	X19	Y19	Z19	X20	Y20	Z20	X21	Y21	Z21	X22	Y22	Z22	X23	Y23	Z23	X24	Y24	Z24	X25	Y25	Z25	X26	Y26	Z26	X27	Y27	Z27	X28	Y28	Z28	X29	Y29	Z29	X30	Y30	Z30	X31	Y31	Z31	X32	Y32	Z32	X33	Y33	Z33	X34	Y34	Z34	X35	Y35	Z35	X36	Y36	Z36	X37	Y37	Z37	X38	Y38	Z38	X39	Y39	Z39	X40	Y40	Z40	X41	Y41	Z41	X42	Y42	Z42	X43	Y43	Z43	X44	Y44	Z44	X45	Y45	Z45	X46	Y46	Z46	X47	Y47	Z47	X48	Y48	Z48	X49	Y49	Z49	X50	Y50	Z50	X51	Y51	Z51	X52	Y52	Z52	X53	Y53	Z53	

272	2.71	-596.1369018554688	965.0712890625	-53.42134857177734	-524.25341796875	955.6936645507812	-176.1911926269531	-555.4879760742188	1064.407470703125	-82.29270172119141	-289.32470703125	1241.638061523438	31.83383369445801	-559.9788818359375	1189.569580078125	-81.24826049804688	-488.4157409667969	1450.786376953125	-32.58379364013672	-314.9678649902344	1357.954833984375	18.13192558288574	-586.9012451171875	1334.874755859375	29.72309303283691	-483.2854919433594	1409.668579101562	-138.0493621826172	-355.5393371582031	1424.063720703125	-171.1670684814453	-334.9088745117188	1315.0263671875	-275.0992431640625	-306.4483337402344	1107.368530273438	-326.2372741699219	-403.3140869140625	1088.88134765625	-295.7410278320312	-235.4898223876953	905.7300415039062	-272.7154541015625	-259.4803771972656	891.2386474609375	-341.2575073242188	-279.55224609375	1021.488525390625	-334.8121643066406	-220.2018737792969	738.2710571289062	-277.5610046386719	-246.34423828125	810.1294555664062	-340.3029479980469	-209.8091278076172	818.7749633789062	-279.5511474609375	-481.9973449707031	1417.117553710938	140.05224609375	-524.4811401367188	1359.099487304688	207.2450561523438	-528.64892578125	1081.628784179688	288.2707824707031	-564.748779296875	1053.400756835938	237.9672546386719	-385.0460510253906	904.6411743164062	300.9592895507812	-461.9019470214844	878.1658325195312	336.1308288574219	-518.7890014648438	1025.55029296875	305.2227478027344	-355.5943298339844	751.0128784179688	332.0401916503906	-355.1156921386719	812.2764892578125	332.2803344726562	-427.4415588378906	798.594482421875	352.9534912109375	-456.8529968261719	1640.724365234375	61.24496078491211	-259.1943969726562	1659.357543945312	3.156076192855835	-329.8734436035156	1663.8369140625	112.5829238891602	-372.7803039550781	1638.931274414062	-96.63413238525391	-334.7462158203125	859.9190063476562	-202.9248046875	-567.7794189453125	854.6070556640625	122.9016418457031	-447.3620300292969	894.89697265625	123.8792037963867	-310.2086181640625	901.6989135742188	-86.77029418945312	-194.2742156982422	468.5477294921875	-113.171760559082	-202.3285827636719	627.8092651367188	-133.9418334960938	-451.2720031738281	132.5936584472656	-213.1812744140625	-271.4447021484375	330.0321044921875	-154.6369476318359	-286.9439392089844	47.92956924438477	-73.64159393310547	-356.6022644042969	83.73810577392578	-68.06484222412109	-322.4192504882812	80.44155120849609	-174.2852020263672	-513.0862426757812	157.0000915527344	-185.0090789794922	-526.0448608398438	457.3810729980469	71.44142150878906	-530.2156982421875	715.8341674804688	138.4378814697266	-583.9622802734375	42.55853271484375	-9.571616172790527	-540.0850219726562	309.9180297851562	61.25113677978516	-372.0151977539062	46.97941207885742	47.51933670043945	-412.1172180175781	54.72685241699219	-11.71908473968506	-480.4755249023438	43.61721038818359	75.15931701660156	-621.7062377929688	39.16050338745117	-80.57328033447266	
273	2.72	-587.2269287109375	964.58154296875	-49.22641372680664	-514.8557739257812	954.6474609375	-171.6463470458984	-547.3746337890625	1063.721069335938	-77.48038482666016	-281.64599609375	1241.408447265625	37.18169403076172	-551.8302612304688	1188.8037109375	-75.96356964111328	-480.7823181152344	1450.33349609375	-27.83937835693359	-307.3159484863281	1357.676635742188	23.13906669616699	-579.1525268554688	1334.393676757812	34.90776443481445	-475.4984741210938	1408.812866210938	-133.1261138916016	-347.7972717285156	1423.043212890625	-166.272216796875	-327.0965576171875	1314.047119140625	-270.1216125488281	-298.8027038574219	1106.574096679688	-321.8239135742188	-395.7022705078125	1088.057006835938	-291.3576354980469	-227.9776153564453	904.7651977539062	-268.9649658203125	-252.1438751220703	890.4319458007812	-337.5056762695312	-272.0503845214844	1020.677856445312	-330.7098388671875	-212.714599609375	737.3652954101562	-274.1863403320312	-238.9888763427734	809.322509765625	-336.7623596191406	-202.3179779052734	817.8365478515625	-276.0876770019531	-474.3331909179688	1417.389404296875	144.8595428466797	-516.5866088867188	1359.623413085938	212.4530792236328	-518.16650390625	1082.739135742188	295.6903686523438	-553.969482421875	1053.56201171875	245.71435546875	-371.2381286621094	908.6734008789062	309.4849853515625	-447.4402770996094	880.8798828125	344.9205017089844	-507.2662963867188	1026.959716796875	313.0570983886719	-338.4758911132812	755.9403686523438	341.4843444824219	-339.2958374023438	817.1907958984375	341.3740844726562	-411.2955627441406	802.1139526367188	362.1838073730469	-448.3165893554688	1640.685302734375	65.56542205810547	-250.7300109863281	1658.606079101562	6.893980026245117	-321.1290283203125	1663.628295898438	116.5021362304688	-364.6663208007812	1638.198486328125	-92.53807067871094	-324.4649353027344	859.8878784179688	-197.0908050537109	-560.4405517578125	854.4156494140625	127.2008743286133	-439.7174682617188	894.0526123046875	128.9062805175781	-301.2475280761719	901.9666137695312	-80.81803131103516	-179.9173126220703	470.5639953613281	-101.9686660766602	-190.4762573242188	629.8848876953125	-124.5378952026367	-417.0651550292969	118.9705123901367	-194.848388671875	-249.2200317382812	327.3664855957031	-140.3401489257812	-248.3713226318359	48.08853149414062	-52.53839874267578	-320.2281494140625	79.78804016113281	-48.17032623291016	-285.2828674316406	76.14241027832031	-154.1176147460938	-480.5113525390625	140.1976776123047	-167.6037445068359	-524.4994506835938	457.3628234863281	72.4951171875	-524.1596069335938	715.3809814453125	141.6057434082031	-583.83740234375	42.79833984375	-9.80206298828125	-539.4464721679688	310.0847778320312	61.68481063842773	-372.0525512695312	46.89855194091797	47.84486770629883	-412.0060424804688	54.76773452758789	-11.55314540863037	-480.5776977539062	43.56611251831055	75.16659545898438	-621.289306640625	39.68190002441406	-81.05467987060547	
274	2.73	-578.2030639648438	963.8720092773438	-45.08440780639648	-505.3556213378906	953.4608154296875	-167.1462097167969	-539.1762084960938	1062.814208984375	-72.74301147460938	-273.9036865234375	1240.896484375	42.57400512695312	-543.6085815429688	1187.828857421875	-70.79861450195312	-473.0408325195312	1449.6318359375	-23.11123847961426	-299.6112365722656	1357.113647460938	28.16921234130859	-571.345458984375	1333.674560546875	40.01316070556641	-467.589599609375	1407.71826171875	-128.2338256835938	-339.9250793457031	1421.744018554688	-161.3672027587891	-319.1485290527344	1312.773681640625	-265.1220397949219	-291.0460815429688	1105.475219726562	-317.3554077148438	-388.0281982421875	1086.998168945312	-286.9892883300781	-220.6185607910156	903.3637084960938	-265.2247009277344	-244.8856811523438	889.3165893554688	-333.8257141113281	-264.5179138183594	1019.548583984375	-326.5930786132812	-205.5969543457031	736.0060424804688	-271.0920715332031	-231.8163299560547	808.1908569335938	-333.3880310058594	-195.1119384765625	816.4241333007812	-272.708251953125	-466.6338500976562	1417.380737304688	149.6536712646484	-508.7066345214844	1359.848022460938	217.5992431640625	-507.75146484375	1083.600463867188	302.9940185546875	-543.2620239257812	1053.494750976562	253.3514709472656	-357.6098022460938	912.4459838867188	317.7614135742188	-433.1299743652344	883.4064331054688	353.5375671386719	-495.8274230957031	1028.139404296875	320.7569580078125	-321.6508483886719	760.6360473632812	350.5682983398438	-323.7233581542969	821.8593139648438	350.13720703125	-395.3621215820312	805.4351806640625	371.1559753417969	-439.7462768554688	1640.374267578125	69.85033416748047	-242.2130889892578	1657.596435546875	10.65212631225586	-312.3588256835938	1663.171264648438	120.4303741455078	-356.4805908203125	1637.1904296875	-88.42570495605469	-314.256103515625	859.5296630859375	-191.3401489257812	-553.0563354492188	854.0708618164062	131.4918365478516	-432.0020446777344	893.045654296875	133.8851623535156	-292.1363525390625	901.9201049804688	-74.93077087402344	-166.32275390625	472.0787048339844	-91.09505462646484	-179.3059234619141	631.27001953125	-115.4373474121094	-381.732177734375	105.6540603637695	-176.3963470458984	-227.0849151611328	324.5833435058594	-126.2020950317383	-209.8545074462891	48.94499969482422	-31.17662620544434	-283.6581115722656	76.43878936767578	-28.14074325561523	-247.7302703857422	72.30303192138672	-133.7144012451172	-446.6126098632812	123.649787902832	-150.1226959228516	-522.6814575195312	457.2955017089844	73.60802459716797	-518.0852661132812	714.7932739257812	144.8045654296875	-583.6751098632812	43.0462532043457	-10.0905818939209	-538.6161499023438	310.2272644042969	62.17008209228516	-372.0790100097656	46.81405258178711	48.15194702148438	-411.8807678222656	54.78952789306641	-11.38742446899414	-480.6637573242188	43.51170349121094	75.14659118652344	-620.8519287109375	40.21590805053711	-81.58062744140625	
275	2.74	-569.067626953125	962.9550170898438	-40.98581695556641	-495.7257690429688	952.1542358398438	-162.6775817871094	-530.8529663085938	1061.676879882812	-68.08230590820312	-266.0855407714844	1240.120727539062	48.00338363647461	-535.3180541992188	1186.648193359375	-65.7611083984375	-465.1863098144531	1448.682250976562	-18.39507484436035	-291.841064453125	1356.283813476562	33.21127700805664	-563.4718017578125	1332.717529296875	45.0482292175293	-459.5624084472656	1406.39599609375	-123.3677978515625	-331.937255859375	1420.192749023438	-156.4576721191406	-311.0953063964844	1311.23193359375	-260.1134643554688	-283.2038269042969	1104.0927734375	-312.8267211914062	-380.307861328125	1085.722045898438	-282.6031188964844	-213.4043884277344	901.557373046875	-261.481201171875	-237.6988525390625	887.9163208007812	-330.1928100585938	-256.96044921875	1018.124816894531	-322.4469299316406	-198.8427734375	734.2186279296875	-268.2529907226562	-224.8247833251953	806.7619018554688	-330.1551818847656	-188.1750946044922	814.568115234375	-269.3941040039062	-458.8807373046875	1417.092651367188	154.4355621337891	-500.8084411621094	1359.776123046875	222.6900482177734	-497.4061889648438	1084.214111328125	310.1718139648438	-532.6359252929688	1053.2001953125	260.8742370605469	-344.1719055175781	915.9427490234375	325.771484375	-418.9817810058594	885.7459716796875	361.9804992675781	-484.477294921875	1029.092895507812	328.3157958984375	-305.1403503417969	765.0831298828125	359.3268432617188	-308.4144592285156	826.2689208984375	358.5775756835938	-379.656982421875	808.5674438476562	379.9005126953125	-431.1389770507812	1639.783203125	74.10975646972656	-233.6495208740234	1656.335083007812	14.44286441802979	-303.5702209472656	1662.463745117188	124.3769836425781	-348.2207946777344	1635.906494140625	-84.28671264648438	-304.0976867675781	858.8649291992188	-185.6338348388672	-545.6447143554688	853.5833129882812	135.7749633789062	-424.230224609375	891.8927001953125	138.8388061523438	-282.8701477050781	901.5671997070312	-69.06373596191406	-153.4851837158203	473.075439453125	-80.55828857421875	-168.8001251220703	631.9346923828125	-106.6671752929688	-345.3934936523438	92.93751525878906	-157.8251342773438	-205.0744781494141	321.8057861328125	-112.2325210571289	-171.5650787353516	50.57570648193359	-9.608098983764648	-247.0373229980469	73.82518005371094	-8.01698112487793	-209.8955383300781	69.07305908203125	-113.1080780029297	-411.49755859375	107.6902847290039	-132.5666046142578	-520.5587158203125	457.1795043945312	74.79608154296875	-512.01611328125	714.0783081054688	148.0541839599609	-583.4716796875	43.31113815307617	-10.43388271331787	-537.5633544921875	310.3423156738281	62.72083282470703	-372.0906677246094	46.72429656982422	48.43773651123047	-411.7375793457031	54.79067993164062	-11.21881771087646	-480.7330627441406	43.44914627075195	75.09926605224609	-620.3970336914062	40.78042221069336	-82.14122009277344	
